# xmcd CD database file
#
# Track frame offsets:
#	150
#	19890
#	43191
#	61291
#	92160
#	112335
#	132982
#	162468
#	188042
#	206918
#	234576
#	252999
#
# Disc length: 3575 seconds
#
# Revision: 0
# Processed by: cddbd v1.5.1PL0 Copyright (c) Steve Scherf et al.
# Submitted via: CDex 1.50
#
DISCID=b40df50c
DTITLE=Elvis Stanic Group - Mantana
DYEAR=2001
DGENRE=Jazz
TTITLE0=Waking The Spring
TTITLE1=The Graceland
TTITLE2=Mantana
TTITLE3=Samba Tala
TTITLE4=Wonderful World
TTITLE5=Little Star
TTITLE6=Did You Not?
TTITLE7=Tha Dhi Heyo
TTITLE8=Pleasant Talk
TTITLE9=Asram
TTITLE10=The Done
TTITLE11=Prayer
EXTD=YEAR: 2001
EXTT0=
EXTT1=
EXTT2=
EXTT3=
EXTT4=
EXTT5=
EXTT6=
EXTT7=
EXTT8=
EXTT9=
EXTT10=
EXTT11=
PLAYORDER=
